# xmcd
#
# Track frame offsets:
#	150
#	8470
#	22067
#	38200
#	50992
#	64330
#	88610
#	105620
#	124735
#	140357
#	158992
#	175390
#
# Disc length: 2389 seconds
#
# Revision: 11
# Processed by: cddbd v1.5.2PL0 Copyright (c) Steve Scherf et al.
# Submitted via: audiograbber 1.83.01
#
DISCID=a309530c
DTITLE=Blues Brothers - Briefcase full of Blues
DYEAR=1978
DGENRE=Blues
TTITLE0=Opening: I can' t turn you loose
TTITLE1=Hey Bartender
TTITLE2=Messin' with the Kid
TTITLE3=(I got everything I need) almost
TTITLE4=Rubber Biscuit
TTITLE5=Shot Gun Blues
TTITLE6=Groove me
TTITLE7=I don' t know
TTITLE8=Soul Man
TTITLE9="B" Movie Box Car Blues
TTITLE10=Flip, flop and fly
TTITLE11=Closing: I can' t turn you loose
EXTD=
EXTT0=
EXTT1=
EXTT2=
EXTT3=
EXTT4=
EXTT5=
EXTT6=
EXTT7=
EXTT8=
EXTT9=
EXTT10=
EXTT11=
PLAYORDER=
